<svg width="39" height="32" viewBox="0 0 39 32" fill="none" xmlns="http://www.w3.org/2000/svg">
<path d="M39 7.30937C39.0007 7.64924 38.9106 7.98395 38.7378 8.28333C38.565 8.58271 38.3149 8.83736 38.01 9.02435C37.7052 9.21134 37.3552 9.32479 36.9916 9.35449C36.6279 9.38418 36.262 9.32919 35.9269 9.19446L30.4436 21.5099H8.53136L3.05243 9.2002C2.5573 9.39369 2.00326 9.41195 1.49467 9.25155C0.986076 9.09114 0.55802 8.76314 0.291114 8.32932C0.0242075 7.89549 -0.0631304 7.38577 0.0455481 6.89615C0.154227 6.40654 0.451422 5.97081 0.881165 5.67103C1.31091 5.37125 1.84354 5.22811 2.37876 5.26855C2.91398 5.309 3.41485 5.53024 3.78705 5.89062C4.15925 6.251 4.37708 6.72565 4.39953 7.22517C4.42199 7.7247 4.24751 8.21463 3.90896 8.60271L11.5675 14.4383L13.4091 4.07848C12.8906 3.99282 12.4224 3.73694 12.0893 3.35729C11.7562 2.97764 11.5803 2.49938 11.5936 2.00931C11.6069 1.51924 11.8084 1.04984 12.1617 0.686317C12.5149 0.32279 12.9964 0.0892242 13.5188 0.0280121C14.0412 -0.0332 14.5699 0.0819981 15.0089 0.352699C15.4478 0.623399 15.768 1.03166 15.9113 1.50338C16.0546 1.97511 16.0115 2.47903 15.7898 2.92368C15.5681 3.36834 15.1825 3.72426 14.7031 3.92685L19.4839 13.5162L24.2745 3.90226C23.798 3.69301 23.4179 3.33153 23.2033 2.8835C22.9887 2.43548 22.9539 1.93064 23.1052 1.46075C23.2564 0.990848 23.5837 0.587069 24.0276 0.322788C24.4715 0.058506 25.0025 -0.0487382 25.5241 0.0205428C26.0456 0.0898239 26.5232 0.331032 26.87 0.700335C27.2168 1.06964 27.4098 1.54253 27.4139 2.03306C27.418 2.5236 27.233 2.99922 26.8924 3.37351C26.5518 3.7478 26.0783 3.99591 25.558 4.07274L27.4004 14.4342L35.0818 8.59041C34.8619 8.33487 34.711 8.03398 34.6417 7.71295C34.5724 7.39193 34.5867 7.06011 34.6835 6.74531C34.7803 6.4305 34.9567 6.14188 35.198 5.90362C35.4392 5.66537 35.7383 5.48441 36.0701 5.37592C36.4019 5.26743 36.7569 5.23456 37.1051 5.28007C37.4534 5.32559 37.7849 5.44815 38.0718 5.6375C38.3588 5.82685 38.5928 6.07746 38.7543 6.36835C38.9158 6.65923 39 6.98192 39 7.30937ZM32.6918 27.0824H6.2831V32H32.6918V27.0824ZM30.249 22.8204H8.75056V25.771H30.249V22.8204Z" fill="#E26C29"/>
</svg>
