<?xml version="1.0" encoding="UTF-8"?><svg id="Layer_1" xmlns="http://www.w3.org/2000/svg" viewBox="0 0 64 80"><defs><style>.cls-1{fill:#ffffff;}.cls-2{fill:#157BF2;stroke:#ffffff;stroke-miterlimit:10;}</style></defs><path id="Subtraction_32" class="cls-1" d="M63.99,80H-.01V29H2.84c.83,0,1.51,.6,1.67,1.41,1.2,6.07,4.38,11.59,9.06,15.68,2.48,2.17,5.33,3.89,8.41,5.07,3.19,1.22,6.58,1.85,10,1.84,3.42,0,6.81-.62,10.01-1.84,3.08-1.18,5.93-2.9,8.41-5.07,4.68-4.09,7.86-9.61,9.06-15.68,.16-.81,.85-1.41,1.67-1.41h2.85s0,51,0,51Z"/><g id="Ellipse_15069"><circle class="cls-2" cx="31.99" cy="24.5" r="24"/></g></svg>